<svg width="303" height="294" viewBox="0 0 303 294" fill="none" xmlns="http://www.w3.org/2000/svg">
<path d="M18.8366 154.135C14.2118 149.438 14.2408 141.89 18.9016 137.229L147.628 8.50295C152.312 3.81879 159.906 3.81636 164.593 8.49752L192.226 36.0945L112.687 249.439L18.8366 154.135Z" fill="#0E67C1"/>
<path d="M118.275 254.83L197.922 42.0115L294.444 138.513C299.131 143.199 299.132 150.798 294.445 155.485L165.335 284.595C160.666 289.264 153.104 289.284 148.41 284.641L118.275 254.83Z" fill="#D82D2E"/>
<g filter="url(#filter0_d_4_534)">
<path d="M62.7065 115.154C62.6053 113.224 64.0882 111.577 66.0185 111.476L86.5288 110.401C87.0591 110.373 87.5116 110.78 87.5394 111.311L87.8051 116.381C87.8329 116.911 87.4255 117.363 86.8952 117.391L66.3849 118.466C64.4545 118.567 62.8077 117.084 62.7065 115.154Z" fill="white"/>
</g>
<g filter="url(#filter1_d_4_534)">
<path d="M34.0649 126.469L85.474 123.775C86.5771 123.717 87.5181 124.564 87.576 125.667L87.733 128.663C87.7908 129.766 86.9434 130.707 85.8404 130.765L34.4313 133.46L34.0649 126.469Z" fill="white"/>
</g>
<g filter="url(#filter2_d_4_534)">
<path d="M68.7023 142.997C68.6012 141.067 70.084 139.42 72.0144 139.319L86.7634 138.546C87.1664 138.525 87.5102 138.834 87.5314 139.237L87.8212 144.768C87.8424 145.171 87.5327 145.515 87.1297 145.536L72.3807 146.309C70.4504 146.41 68.8035 144.928 68.7023 142.997Z" fill="white"/>
</g>
<g filter="url(#filter3_d_4_534)">
<path d="M4.18318 160.521C4.08201 158.591 5.56486 156.944 7.4952 156.843L42.6633 155L43.0296 161.99L7.86156 163.833C5.93121 163.935 4.28434 162.452 4.18318 160.521Z" fill="#0E67C1"/>
</g>
<g filter="url(#filter4_d_4_534)">
<path d="M41.8725 186.798C41.7713 184.868 43.2542 183.221 45.1845 183.12L83.939 181.089C84.8724 181.04 85.6687 181.757 85.7176 182.69L85.9068 186.3C85.9557 187.234 85.2388 188.03 84.3054 188.079L45.5509 190.11C43.6205 190.211 41.9737 188.728 41.8725 186.798Z" fill="white"/>
</g>
<g filter="url(#filter5_d_4_534)">
<path d="M35.7236 169.808C35.6224 167.878 37.1053 166.231 39.0356 166.13L83.5514 163.797C84.6121 163.741 85.5169 164.556 85.5725 165.617L85.7376 168.766C85.7932 169.827 84.9784 170.732 83.9178 170.787L39.402 173.12C37.4716 173.222 35.8247 171.739 35.7236 169.808Z" fill="white"/>
</g>
<g filter="url(#filter6_d_4_534)">
<path d="M17.7359 179.279C17.6347 177.349 19.1176 175.702 21.0479 175.601L83.4623 172.33C84.5653 172.272 85.5064 173.12 85.5642 174.223L85.7212 177.218C85.779 178.322 84.9317 179.263 83.8286 179.32L21.4143 182.591C19.4839 182.693 17.8371 181.21 17.7359 179.279Z" fill="#0E67C1"/>
</g>
<g filter="url(#filter7_d_4_534)">
<path d="M53.7127 157.39C53.6116 155.459 55.0944 153.813 57.0247 153.711L86.177 152.184C86.8983 152.146 87.5136 152.7 87.5514 153.421L87.7809 157.8C87.8187 158.521 87.2646 159.136 86.5434 159.174L57.3911 160.702C55.4607 160.803 53.8139 159.32 53.7127 157.39Z" fill="white"/>
</g>
<g filter="url(#filter8_d_4_534)">
<path d="M53.7127 157.39C53.6116 155.459 55.0944 153.813 57.0247 153.711L86.177 152.184C86.8983 152.146 87.5136 152.7 87.5514 153.421L87.7809 157.8C87.8187 158.521 87.2646 159.136 86.5434 159.174L57.3911 160.702C55.4607 160.803 53.8139 159.32 53.7127 157.39Z" fill="white"/>
</g>
<g filter="url(#filter9_d_4_534)">
<circle cx="48.1893" cy="157.5" r="3.5" fill="white"/>
</g>
<g filter="url(#filter10_d_4_534)">
<circle cx="63.1893" cy="143.5" r="3.5" fill="white"/>
</g>
<g filter="url(#filter11_d_4_534)">
<path d="M14.5001 130.999C14.3989 129.069 15.8818 127.422 17.8121 127.321L34.0424 126.47L34.4087 133.461L18.1784 134.311C16.2481 134.413 14.6012 132.93 14.5001 130.999Z" fill="#0E67C1"/>
</g>
<rect x="147" y="140" width="1.5" height="1.5" rx="0.75" fill="#0E67C1"/>
<g filter="url(#filter12_d_4_534)">
<path d="M188.5 186.994L139.157 189.323C137.186 189.415 135.265 189.051 133.543 188.26C133.211 188.109 132.841 188.04 132.462 188.058C132.082 188.076 131.703 188.18 131.355 188.363C129.551 189.32 127.586 189.868 125.616 189.965L93.7626 191.467C92.0742 191.545 90.4868 190.954 89.3495 189.824C88.2122 188.694 87.6176 187.116 87.6962 185.438L88.6483 165.561C88.7353 163.969 89.419 162.41 90.5643 161.192C91.7098 159.975 93.2345 159.186 94.8368 158.982C97.3109 158.668 99.6642 157.45 101.431 155.567C103.197 153.685 104.247 151.276 104.374 148.818C104.483 146.361 103.659 144.04 102.064 142.315C100.47 140.591 98.2216 139.589 95.7655 139.509C94.1755 139.456 92.7194 138.808 91.6854 137.693C90.6516 136.579 90.1144 135.078 90.1796 133.487L91.1288 113.629C91.2124 111.954 91.96 110.317 93.2079 109.076C94.4559 107.835 96.1032 107.091 97.7889 107.007L129.642 105.501C131.612 105.411 133.532 105.774 135.253 106.564C135.585 106.717 135.957 106.787 136.337 106.769C136.717 106.751 137.096 106.646 137.444 106.462C139.249 105.505 141.214 104.958 143.184 104.863L192 102.56L188.5 186.994ZM133.346 169.559C132.673 169.59 132 169.753 131.366 170.038C130.732 170.323 130.15 170.726 129.651 171.221C129.153 171.716 128.749 172.295 128.462 172.925C128.175 173.555 128.01 174.223 127.978 174.892L127.733 180.068C127.689 181.405 128.176 182.655 129.09 183.549C130.003 184.442 131.269 184.908 132.615 184.845C133.961 184.781 135.278 184.195 136.281 183.211C137.285 182.227 137.895 180.925 137.978 179.587L138.226 174.408C138.258 173.74 138.157 173.083 137.93 172.478C137.702 171.872 137.35 171.328 136.897 170.878C136.444 170.428 135.897 170.08 135.288 169.854C134.679 169.627 134.018 169.527 133.346 169.559ZM134.295 149.747C133.621 149.778 132.947 149.942 132.312 150.228C131.677 150.513 131.094 150.915 130.595 151.411C130.096 151.907 129.691 152.488 129.404 153.119C129.117 153.75 128.954 154.42 128.923 155.09L128.686 160.04C128.622 161.39 129.1 162.66 130.016 163.569C130.931 164.479 132.208 164.954 133.566 164.89C134.925 164.826 136.254 164.228 137.261 163.228C138.267 162.227 138.869 160.907 138.933 159.557L139.171 154.606C139.235 153.257 138.756 151.988 137.842 151.079C136.927 150.17 135.651 149.695 134.293 149.759L134.295 149.747ZM135.24 129.937C134.566 129.969 133.892 130.133 133.257 130.42C132.622 130.707 132.038 131.11 131.54 131.607C131.041 132.105 130.637 132.686 130.351 133.318C130.066 133.95 129.903 134.62 129.874 135.29L129.638 140.24C129.593 141.576 130.08 142.827 130.993 143.721C131.906 144.614 133.174 145.08 134.519 145.017C135.865 144.953 137.182 144.366 138.185 143.383C139.189 142.399 139.799 141.097 139.883 139.759L140.119 134.809C140.151 134.14 140.05 133.484 139.822 132.879C139.594 132.273 139.244 131.73 138.791 131.279C138.338 130.829 137.791 130.48 137.182 130.254C136.572 130.027 135.912 129.927 135.239 129.959L135.24 129.937ZM136.222 109.918C135.549 109.949 134.876 110.113 134.242 110.397C133.608 110.682 133.026 111.083 132.527 111.578C132.029 112.073 131.624 112.652 131.337 113.282C131.05 113.912 130.885 114.58 130.852 115.249L130.597 120.411C130.553 121.086 130.645 121.75 130.866 122.365C131.088 122.98 131.435 123.533 131.888 123.992C132.34 124.451 132.889 124.808 133.502 125.04C134.115 125.272 134.78 125.377 135.459 125.347C136.138 125.316 136.818 125.152 137.457 124.863C138.096 124.575 138.683 124.168 139.183 123.666C139.684 123.164 140.088 122.577 140.373 121.939C140.657 121.302 140.817 120.626 140.841 119.952L141.101 114.79C141.133 114.122 141.032 113.466 140.805 112.86C140.577 112.255 140.226 111.711 139.772 111.261C139.319 110.81 138.772 110.462 138.163 110.235C137.554 110.009 136.893 109.909 136.221 109.94L136.222 109.918Z" fill="white"/>
<path d="M188.135 187.029L191.249 119.201L191.955 132.673L210.803 131.685L205.583 113.907L191.458 114.647L192.012 102.583L216.985 101.275C239.597 100.09 258.033 121.026 259.405 147.19L260.977 177.194C261.06 178.786 260.44 180.349 259.252 181.54C258.063 182.731 256.405 183.451 254.641 183.544L246.853 183.952C245.66 187.534 243.271 190.706 240.014 193.031C236.758 195.356 232.793 196.721 228.667 196.937C224.541 197.154 220.456 196.211 216.974 194.238C213.492 192.266 210.785 189.361 209.224 185.924L188.135 187.029ZM219.214 113.259L227.885 142.825L245.416 141.906C242.468 125.477 231.298 113.642 219.214 113.259ZM227.41 172.936C225.646 173.029 223.987 173.75 222.799 174.94C221.611 176.131 220.99 177.694 221.073 179.286C221.157 180.877 221.938 182.367 223.244 183.427C224.55 184.487 226.275 185.03 228.039 184.938C229.802 184.846 231.461 184.125 232.649 182.934C233.837 181.743 234.458 180.18 234.375 178.589C234.291 176.997 233.511 175.507 232.204 174.447C230.898 173.387 229.173 172.844 227.41 172.936Z" fill="white"/>
</g>
<rect x="150.408" y="113" width="25" height="4" transform="rotate(2 150.408 113)" fill="url(#paint0_linear_4_534)"/>
<rect x="150.164" y="119.996" width="25" height="4" transform="rotate(2 150.164 119.996)" fill="url(#paint1_linear_4_534)"/>
<rect x="149.919" y="126.991" width="25" height="4" transform="rotate(2 149.919 126.991)" fill="url(#paint2_linear_4_534)"/>
<rect x="149.571" y="136.985" width="25" height="4" transform="rotate(2 149.571 136.985)" fill="url(#paint3_linear_4_534)"/>
<rect x="149.326" y="143.981" width="25" height="11" transform="rotate(2 149.326 143.981)" fill="url(#paint4_linear_4_534)"/>
<rect x="148.838" y="157.973" width="25" height="4" transform="rotate(2 148.838 157.973)" fill="url(#paint5_linear_4_534)"/>
<rect x="148.489" y="167.967" width="25" height="7" transform="rotate(2 148.489 167.967)" fill="url(#paint6_linear_4_534)"/>
<rect x="148.14" y="177.96" width="25" height="4" transform="rotate(2 148.14 177.96)" fill="url(#paint7_linear_4_534)"/>
<defs>
<filter id="filter0_d_4_534" x="58.7017" y="110.4" width="33.1047" height="16.0715" filterUnits="userSpaceOnUse" color-interpolation-filters="sRGB">
<feFlood flood-opacity="0" result="BackgroundImageFix"/>
<feColorMatrix in="SourceAlpha" type="matrix" values="0 0 0 0 0 0 0 0 0 0 0 0 0 0 0 0 0 0 127 0" result="hardAlpha"/>
<feOffset dy="4"/>
<feGaussianBlur stdDeviation="2"/>
<feComposite in2="hardAlpha" operator="out"/>
<feColorMatrix type="matrix" values="0 0 0 0 0 0 0 0 0 0 0 0 0 0 0 0 0 0 0.25 0"/>
<feBlend mode="normal" in2="BackgroundImageFix" result="effect1_dropShadow_4_534"/>
<feBlend mode="normal" in="SourceGraphic" in2="effect1_dropShadow_4_534" result="shape"/>
</filter>
<filter id="filter1_d_4_534" x="30.0649" y="123.772" width="61.6708" height="17.6874" filterUnits="userSpaceOnUse" color-interpolation-filters="sRGB">
<feFlood flood-opacity="0" result="BackgroundImageFix"/>
<feColorMatrix in="SourceAlpha" type="matrix" values="0 0 0 0 0 0 0 0 0 0 0 0 0 0 0 0 0 0 127 0" result="hardAlpha"/>
<feOffset dy="4"/>
<feGaussianBlur stdDeviation="2"/>
<feComposite in2="hardAlpha" operator="out"/>
<feColorMatrix type="matrix" values="0 0 0 0 0 0 0 0 0 0 0 0 0 0 0 0 0 0 0.25 0"/>
<feBlend mode="normal" in2="BackgroundImageFix" result="effect1_dropShadow_4_534"/>
<feBlend mode="normal" in="SourceGraphic" in2="effect1_dropShadow_4_534" result="shape"/>
</filter>
<filter id="filter2_d_4_534" x="64.6975" y="138.545" width="27.1248" height="15.7693" filterUnits="userSpaceOnUse" color-interpolation-filters="sRGB">
<feFlood flood-opacity="0" result="BackgroundImageFix"/>
<feColorMatrix in="SourceAlpha" type="matrix" values="0 0 0 0 0 0 0 0 0 0 0 0 0 0 0 0 0 0 127 0" result="hardAlpha"/>
<feOffset dy="4"/>
<feGaussianBlur stdDeviation="2"/>
<feComposite in2="hardAlpha" operator="out"/>
<feColorMatrix type="matrix" values="0 0 0 0 0 0 0 0 0 0 0 0 0 0 0 0 0 0 0.25 0"/>
<feBlend mode="normal" in2="BackgroundImageFix" result="effect1_dropShadow_4_534"/>
<feBlend mode="normal" in="SourceGraphic" in2="effect1_dropShadow_4_534" result="shape"/>
</filter>
<filter id="filter3_d_4_534" x="0.178345" y="155" width="46.8513" height="16.8384" filterUnits="userSpaceOnUse" color-interpolation-filters="sRGB">
<feFlood flood-opacity="0" result="BackgroundImageFix"/>
<feColorMatrix in="SourceAlpha" type="matrix" values="0 0 0 0 0 0 0 0 0 0 0 0 0 0 0 0 0 0 127 0" result="hardAlpha"/>
<feOffset dy="4"/>
<feGaussianBlur stdDeviation="2"/>
<feComposite in2="hardAlpha" operator="out"/>
<feColorMatrix type="matrix" values="0 0 0 0 0 0 0 0 0 0 0 0 0 0 0 0 0 0 0.25 0"/>
<feBlend mode="normal" in2="BackgroundImageFix" result="effect1_dropShadow_4_534"/>
<feBlend mode="normal" in="SourceGraphic" in2="effect1_dropShadow_4_534" result="shape"/>
</filter>
<filter id="filter4_d_4_534" x="37.8677" y="181.086" width="52.0415" height="17.0287" filterUnits="userSpaceOnUse" color-interpolation-filters="sRGB">
<feFlood flood-opacity="0" result="BackgroundImageFix"/>
<feColorMatrix in="SourceAlpha" type="matrix" values="0 0 0 0 0 0 0 0 0 0 0 0 0 0 0 0 0 0 127 0" result="hardAlpha"/>
<feOffset dy="4"/>
<feGaussianBlur stdDeviation="2"/>
<feComposite in2="hardAlpha" operator="out"/>
<feColorMatrix type="matrix" values="0 0 0 0 0 0 0 0 0 0 0 0 0 0 0 0 0 0 0.25 0"/>
<feBlend mode="normal" in2="BackgroundImageFix" result="effect1_dropShadow_4_534"/>
<feBlend mode="normal" in="SourceGraphic" in2="effect1_dropShadow_4_534" result="shape"/>
</filter>
<filter id="filter5_d_4_534" x="31.7188" y="163.794" width="58.0215" height="17.3309" filterUnits="userSpaceOnUse" color-interpolation-filters="sRGB">
<feFlood flood-opacity="0" result="BackgroundImageFix"/>
<feColorMatrix in="SourceAlpha" type="matrix" values="0 0 0 0 0 0 0 0 0 0 0 0 0 0 0 0 0 0 127 0" result="hardAlpha"/>
<feOffset dy="4"/>
<feGaussianBlur stdDeviation="2"/>
<feComposite in2="hardAlpha" operator="out"/>
<feColorMatrix type="matrix" values="0 0 0 0 0 0 0 0 0 0 0 0 0 0 0 0 0 0 0.25 0"/>
<feBlend mode="normal" in2="BackgroundImageFix" result="effect1_dropShadow_4_534"/>
<feBlend mode="normal" in="SourceGraphic" in2="effect1_dropShadow_4_534" result="shape"/>
</filter>
<filter id="filter6_d_4_534" x="13.7311" y="172.327" width="75.9929" height="18.269" filterUnits="userSpaceOnUse" color-interpolation-filters="sRGB">
<feFlood flood-opacity="0" result="BackgroundImageFix"/>
<feColorMatrix in="SourceAlpha" type="matrix" values="0 0 0 0 0 0 0 0 0 0 0 0 0 0 0 0 0 0 127 0" result="hardAlpha"/>
<feOffset dy="4"/>
<feGaussianBlur stdDeviation="2"/>
<feComposite in2="hardAlpha" operator="out"/>
<feColorMatrix type="matrix" values="0 0 0 0 0 0 0 0 0 0 0 0 0 0 0 0 0 0 0.25 0"/>
<feBlend mode="normal" in2="BackgroundImageFix" result="effect1_dropShadow_4_534"/>
<feBlend mode="normal" in="SourceGraphic" in2="effect1_dropShadow_4_534" result="shape"/>
</filter>
<filter id="filter7_d_4_534" x="49.7079" y="152.182" width="42.0748" height="16.5249" filterUnits="userSpaceOnUse" color-interpolation-filters="sRGB">
<feFlood flood-opacity="0" result="BackgroundImageFix"/>
<feColorMatrix in="SourceAlpha" type="matrix" values="0 0 0 0 0 0 0 0 0 0 0 0 0 0 0 0 0 0 127 0" result="hardAlpha"/>
<feOffset dy="4"/>
<feGaussianBlur stdDeviation="2"/>
<feComposite in2="hardAlpha" operator="out"/>
<feColorMatrix type="matrix" values="0 0 0 0 0 0 0 0 0 0 0 0 0 0 0 0 0 0 0.25 0"/>
<feBlend mode="normal" in2="BackgroundImageFix" result="effect1_dropShadow_4_534"/>
<feBlend mode="normal" in="SourceGraphic" in2="effect1_dropShadow_4_534" result="shape"/>
</filter>
<filter id="filter8_d_4_534" x="49.7079" y="152.182" width="42.0748" height="16.5249" filterUnits="userSpaceOnUse" color-interpolation-filters="sRGB">
<feFlood flood-opacity="0" result="BackgroundImageFix"/>
<feColorMatrix in="SourceAlpha" type="matrix" values="0 0 0 0 0 0 0 0 0 0 0 0 0 0 0 0 0 0 127 0" result="hardAlpha"/>
<feOffset dy="4"/>
<feGaussianBlur stdDeviation="2"/>
<feComposite in2="hardAlpha" operator="out"/>
<feColorMatrix type="matrix" values="0 0 0 0 0 0 0 0 0 0 0 0 0 0 0 0 0 0 0.25 0"/>
<feBlend mode="normal" in2="BackgroundImageFix" result="effect1_dropShadow_4_534"/>
<feBlend mode="normal" in="SourceGraphic" in2="effect1_dropShadow_4_534" result="shape"/>
</filter>
<filter id="filter9_d_4_534" x="40.6893" y="154" width="15" height="15" filterUnits="userSpaceOnUse" color-interpolation-filters="sRGB">
<feFlood flood-opacity="0" result="BackgroundImageFix"/>
<feColorMatrix in="SourceAlpha" type="matrix" values="0 0 0 0 0 0 0 0 0 0 0 0 0 0 0 0 0 0 127 0" result="hardAlpha"/>
<feOffset dy="4"/>
<feGaussianBlur stdDeviation="2"/>
<feComposite in2="hardAlpha" operator="out"/>
<feColorMatrix type="matrix" values="0 0 0 0 0 0 0 0 0 0 0 0 0 0 0 0 0 0 0.25 0"/>
<feBlend mode="normal" in2="BackgroundImageFix" result="effect1_dropShadow_4_534"/>
<feBlend mode="normal" in="SourceGraphic" in2="effect1_dropShadow_4_534" result="shape"/>
</filter>
<filter id="filter10_d_4_534" x="55.6893" y="140" width="15" height="15" filterUnits="userSpaceOnUse" color-interpolation-filters="sRGB">
<feFlood flood-opacity="0" result="BackgroundImageFix"/>
<feColorMatrix in="SourceAlpha" type="matrix" values="0 0 0 0 0 0 0 0 0 0 0 0 0 0 0 0 0 0 127 0" result="hardAlpha"/>
<feOffset dy="4"/>
<feGaussianBlur stdDeviation="2"/>
<feComposite in2="hardAlpha" operator="out"/>
<feColorMatrix type="matrix" values="0 0 0 0 0 0 0 0 0 0 0 0 0 0 0 0 0 0 0.25 0"/>
<feBlend mode="normal" in2="BackgroundImageFix" result="effect1_dropShadow_4_534"/>
<feBlend mode="normal" in="SourceGraphic" in2="effect1_dropShadow_4_534" result="shape"/>
</filter>
<filter id="filter11_d_4_534" x="10.4952" y="126.47" width="27.9135" height="15.8459" filterUnits="userSpaceOnUse" color-interpolation-filters="sRGB">
<feFlood flood-opacity="0" result="BackgroundImageFix"/>
<feColorMatrix in="SourceAlpha" type="matrix" values="0 0 0 0 0 0 0 0 0 0 0 0 0 0 0 0 0 0 127 0" result="hardAlpha"/>
<feOffset dy="4"/>
<feGaussianBlur stdDeviation="2"/>
<feComposite in2="hardAlpha" operator="out"/>
<feColorMatrix type="matrix" values="0 0 0 0 0 0 0 0 0 0 0 0 0 0 0 0 0 0 0.25 0"/>
<feBlend mode="normal" in2="BackgroundImageFix" result="effect1_dropShadow_4_534"/>
<feBlend mode="normal" in="SourceGraphic" in2="effect1_dropShadow_4_534" result="shape"/>
</filter>
<filter id="filter12_d_4_534" x="83.6892" y="101.227" width="181.295" height="103.741" filterUnits="userSpaceOnUse" color-interpolation-filters="sRGB">
<feFlood flood-opacity="0" result="BackgroundImageFix"/>
<feColorMatrix in="SourceAlpha" type="matrix" values="0 0 0 0 0 0 0 0 0 0 0 0 0 0 0 0 0 0 127 0" result="hardAlpha"/>
<feOffset dy="4"/>
<feGaussianBlur stdDeviation="2"/>
<feComposite in2="hardAlpha" operator="out"/>
<feColorMatrix type="matrix" values="0 0 0 0 0 0 0 0 0 0 0 0 0 0 0 0 0 0 0.25 0"/>
<feBlend mode="normal" in2="BackgroundImageFix" result="effect1_dropShadow_4_534"/>
<feBlend mode="normal" in="SourceGraphic" in2="effect1_dropShadow_4_534" result="shape"/>
</filter>
<linearGradient id="paint0_linear_4_534" x1="150.408" y1="115" x2="175.408" y2="115" gradientUnits="userSpaceOnUse">
<stop stop-color="#0E67C1"/>
<stop offset="0.572115" stop-color="#D82D2E"/>
</linearGradient>
<linearGradient id="paint1_linear_4_534" x1="150.164" y1="121.996" x2="175.164" y2="121.996" gradientUnits="userSpaceOnUse">
<stop stop-color="#0E67C1"/>
<stop offset="0.5625" stop-color="#D82D2E"/>
</linearGradient>
<linearGradient id="paint2_linear_4_534" x1="149.919" y1="128.991" x2="174.919" y2="128.991" gradientUnits="userSpaceOnUse">
<stop stop-color="#0E67C1"/>
<stop offset="0.485577" stop-color="#D82D2E"/>
<stop offset="0.838216" stop-color="#D82D2E"/>
</linearGradient>
<linearGradient id="paint3_linear_4_534" x1="149.571" y1="138.985" x2="174.571" y2="138.985" gradientUnits="userSpaceOnUse">
<stop stop-color="#0E67C1"/>
<stop offset="0.423077" stop-color="#D82D2E"/>
</linearGradient>
<linearGradient id="paint4_linear_4_534" x1="149.193" y1="149.508" x2="174.195" y2="149.135" gradientUnits="userSpaceOnUse">
<stop stop-color="#0E67C1"/>
<stop offset="0.322115" stop-color="#D82D2E"/>
</linearGradient>
<linearGradient id="paint5_linear_4_534" x1="148.838" y1="159.973" x2="173.838" y2="159.973" gradientUnits="userSpaceOnUse">
<stop stop-color="#0E67C1"/>
<stop offset="0.115385" stop-color="#D82D2E"/>
</linearGradient>
<linearGradient id="paint6_linear_4_534" x1="148.489" y1="171.467" x2="173.489" y2="171.467" gradientUnits="userSpaceOnUse">
<stop stop-color="#0E67C1"/>
<stop offset="0.115385" stop-color="#D82D2E"/>
</linearGradient>
<linearGradient id="paint7_linear_4_534" x1="148.14" y1="179.96" x2="173.14" y2="179.96" gradientUnits="userSpaceOnUse">
<stop stop-color="#0E67C1"/>
<stop offset="0.139423" stop-color="#D82D2E"/>
</linearGradient>
</defs>
</svg>
