<?xml version="1.0" encoding="UTF-8"?>
<svg version="1.1" xmlns="http://www.w3.org/2000/svg" width="512" height="512">
<path d="M0 0 C0.82886719 0.70898438 1.65773438 1.41796875 2.51171875 2.1484375 C34.87375271 30.39707358 44.11946537 67.50201221 47 109 C48.19424943 126.60686009 48.19424943 126.60686009 43.5 132.5546875 C38.01055356 137.84399787 33.03115353 139.37440653 25.6328125 139.27734375 C20.12742308 138.69739917 15.84875562 136.23694853 12.125 132.1875 C8.37237123 126.55855684 7.66703915 120.47362946 7.0703125 113.85546875 C6.91299162 112.27406552 6.75543133 110.6926861 6.59765625 109.11132812 C6.36139275 106.66840234 6.12851543 104.22523918 5.90087891 101.78149414 C3.97848814 79.40785799 3.97848814 79.40785799 -3.75 58.5625 C-4.09434082 57.9132959 -4.43868164 57.2640918 -4.79345703 56.59521484 C-15.06173537 37.71633839 -31.19218927 22.39691553 -52 16 C-99.43389368 3.76362222 -152.84221869 3.87113159 -201 11 C-195.41422471 13.56875644 -189.8157279 16.09605891 -184.16015625 18.5078125 C-170.65034765 24.28626311 -157.65293876 30.5237301 -145 38 C-143.75814941 38.72920654 -143.75814941 38.72920654 -142.49121094 39.47314453 C-131.92072864 45.73751179 -122.68358749 52.28919124 -114 61 C-113.30132812 61.639375 -112.60265625 62.27875 -111.8828125 62.9375 C-62.41544441 109.0275779 -60.97101001 183.84185717 -58.43725586 246.1965332 C-58.22103978 252.46341443 -58.08790556 258.73013565 -58 265 C-57.98904297 265.74757568 -57.97808594 266.49515137 -57.96679688 267.26538086 C-57.49721144 300.88562644 -58.59730598 334.46253065 -61 368 C-46.00262391 364.21722895 -33.58456941 358.54176856 -22 348 C-21.36707031 347.44828125 -20.73414063 346.8965625 -20.08203125 346.328125 C-8.87767677 335.96986593 -1.20959213 321.52999867 2.0390625 306.765625 C2.29682716 305.59774193 2.29682716 305.59774193 2.55979919 304.40626526 C4.40438507 295.65343758 5.25658786 286.83524249 6.0625 277.9375 C8.20118314 254.43080777 8.20118314 254.43080777 12.9375 248.625 C13.618125 248.08875 14.29875 247.5525 15 247 C15.680625 246.443125 16.36125 245.88625 17.0625 245.3125 C22.07590045 241.9163255 28.1964458 242.46556116 34 243 C39.41648887 244.7079019 42.76867308 248.53316573 46 253 C53.93944894 276.81834682 43.22713265 319.76262222 32.3046875 341.66088867 C17.35480918 370.31359592 -7.13291356 393.04637754 -37.91015625 403.49609375 C-45.8141485 405.9710498 -53.97789495 407.34467461 -62.14672852 408.63037109 C-64.083769 408.93203838 -64.083769 408.93203838 -66 410 C-66.98942959 412.78351577 -67.8881751 415.55222755 -68.75 418.375 C-72.55300721 430.22417373 -77.79887161 439.58568693 -86 449 C-86.51949219 449.62648438 -87.03898438 450.25296875 -87.57421875 450.8984375 C-96.0873128 460.37649183 -108.48884201 465.81687962 -121 467 C-166.39801775 468.52971582 -216.87998537 443.57284901 -254 420 C-255.01755371 419.35732178 -255.01755371 419.35732178 -256.05566406 418.70166016 C-291.50369432 395.93981127 -313.16436582 353.66991396 -322.31640625 313.58203125 C-325.87964668 295.72126796 -326.72090819 277.22148255 -328.16796875 259.09765625 C-328.23756805 258.23348587 -328.30716736 257.36931549 -328.37887573 256.47895813 C-329.50236403 242.06708031 -330.16528843 227.73476234 -330.203125 213.28125 C-330.21006139 211.62273637 -330.21705649 209.96422299 -330.22410583 208.30570984 C-330.24325317 203.03713705 -330.24802241 197.76860349 -330.25 192.5 C-330.25073643 191.60456608 -330.25147285 190.70913216 -330.2522316 189.78656387 C-330.27014979 163.06829002 -329.84391416 136.58960303 -327 110 C-326.75589797 107.45070343 -326.51364743 104.90122875 -326.2734375 102.3515625 C-322.29556516 61.83385586 -311.84518231 26.96573756 -280 -0.3125 C-274.5750669 -4.67331161 -269.04706351 -8.55348712 -263 -12 C-262.14245117 -12.49113281 -262.14245117 -12.49113281 -261.26757812 -12.9921875 C-236.05833814 -27.18405594 -204.4406096 -30.09023651 -176 -32 C-175.19079102 -32.05639648 -174.38158203 -32.11279297 -173.54785156 -32.17089844 C-119.33098271 -35.78250697 -43.34207071 -38.24734689 0 0 Z " fill="#000000" transform="translate(330,39)"/>
<path d="M0 0 C6.43982443 5.12430601 12.11930539 11.1252039 17.91662598 16.95111084 C19.37108391 18.40354452 20.82598664 19.8555329 22.28131104 21.30709839 C25.31861845 24.34000044 28.35047842 27.37821683 31.37854004 30.42034912 C35.24729445 34.3062093 39.12938401 38.17842309 43.01565933 42.04675102 C46.01863477 45.03885342 49.01438843 48.03810455 52.00804901 51.03952408 C53.43629973 52.46976627 54.8667553 53.8978104 56.29950714 55.32354355 C58.30458165 57.32094397 60.29969802 59.32780748 62.29260254 61.33734131 C62.8776355 61.91630157 63.46266846 62.49526184 64.06542969 63.09176636 C68.83252178 67.93228709 73.22366654 73.01842006 74.40490723 79.84173584 C74.37203613 81.57036865 74.37203613 81.57036865 74.33850098 83.33392334 C74.33979004 84.49150146 74.3410791 85.64907959 74.34240723 86.84173584 C73.15213032 93.91772685 67.68948331 98.58873687 62.79187012 103.4677124 C62.09706039 104.16763306 61.40225067 104.86755371 60.68638611 105.58868408 C58.39977034 107.8891436 56.1058582 110.18215569 53.81115723 112.47454834 C52.21437433 114.07521982 50.6178149 115.67611426 49.02146912 117.27722168 C45.68010557 120.62603532 42.33490771 123.97096185 38.98718262 127.31341553 C34.69689027 131.59790206 30.41809609 135.89367154 26.14231205 140.19263077 C22.85072739 143.49893869 19.55225108 146.79830289 16.25173759 150.0956955 C14.6709432 151.67700338 13.09251208 153.26067744 11.51649666 154.84674835 C9.31459848 157.06097147 7.10338498 159.26545657 4.88952637 161.4677124 C4.24053375 162.12434875 3.59154114 162.78098511 2.92288208 163.45751953 C-2.12799367 168.45002037 -5.91080806 170.49342839 -13.16149902 170.52142334 C-18.9100581 170.3947721 -22.68485404 169.74806833 -26.87634277 165.55657959 C-31.03938341 160.92336025 -32.37865908 157.71269488 -32.47399902 151.39642334 C-32.49978027 150.37935303 -32.52556152 149.36228271 -32.55212402 148.31439209 C-31.72712788 140.50639289 -26.37971904 135.96489455 -21.05603027 130.74798584 C-20.2612175 129.95741791 -19.46640472 129.16684998 -18.64750671 128.35232544 C-16.11748164 125.83903821 -13.57720557 123.33640751 -11.03649902 120.83392334 C-9.3151082 119.12758558 -7.5943971 117.4205618 -5.87438965 115.71282959 C-1.66543593 111.53688027 2.55197398 107.36962224 6.77600098 103.20892334 C6.08669967 103.20745678 5.39739836 103.20599022 4.68720913 103.20447922 C-12.09758058 103.16740139 -28.8821357 103.10837389 -45.66675663 103.0250206 C-53.78374112 102.98523863 -61.90062878 102.9528419 -70.0177002 102.93792725 C-77.09388806 102.92490632 -84.16986279 102.89793055 -91.24593061 102.85431027 C-94.99149626 102.83170515 -98.73679913 102.81601207 -102.48243904 102.81703949 C-106.66750798 102.81792565 -110.85180285 102.7876523 -115.03674316 102.75482178 C-116.89251732 102.76236732 -116.89251732 102.76236732 -118.78578186 102.77006531 C-125.48103352 102.68874968 -129.81385517 102.27973952 -135.22399902 98.20892334 C-140.55280469 92.44805235 -141.739087 88.0033622 -141.60681152 80.25579834 C-140.87471073 74.42887365 -137.89767516 70.92783396 -133.91149902 66.83392334 C-126.71509828 62.48261126 -118.61745696 62.90501551 -110.47399902 62.89007568 C-109.21462021 62.88003006 -107.95524139 62.86998444 -106.65769958 62.8596344 C-103.22647728 62.83248278 -99.7952957 62.8172294 -96.3639946 62.80420637 C-92.7698376 62.7885104 -89.17576294 62.76174101 -85.58166504 62.73617554 C-78.78563848 62.6895017 -71.98959622 62.65270268 -65.19349194 62.61950266 C-57.45216928 62.58120045 -49.71092956 62.53181167 -41.96967697 62.48151851 C-26.05451105 62.37836826 -10.13929851 62.28905323 5.77600098 62.20892334 C5.34418015 61.78376434 4.91235931 61.35860535 4.467453 60.92056274 C-0.03509663 56.48450622 -4.52695372 52.03782771 -9.01281738 47.5848999 C-10.68719335 45.92558797 -12.36425498 44.26898144 -14.04406738 42.61517334 C-16.4614646 40.23426244 -18.86896046 37.84371281 -21.27478027 35.45111084 C-22.3999279 34.349189 -22.3999279 34.349189 -23.54780579 33.2250061 C-28.06037679 28.71389479 -31.75044789 24.77448479 -32.62243652 18.20892334 C-32.5703635 11.54357593 -32.46603903 6.67715219 -27.71228027 1.59173584 C-19.14420722 -6.4564766 -9.35539586 -6.48240161 0 0 Z " fill="#000000" transform="translate(438.2239990234375,146.79107666015625)"/>
</svg>
